# xmcd
#
# Track frame offsets:
#	150
#	21115
#	37298
#	54238
#	70190
#	81838
#	102530
#	114275
#	127945
#	141755
#
# Disc length: 2098 seconds
#
# Revision: 0
# Processed by: cddbd v1.4PL0 Copyright (c) Steve Scherf et al.
# Submitted via: dBpowerAMP V4.0
#
DISCID=8408300a
DTITLE=Bjørn Jens - Flagga Ut
DYEAR=1900
DGENRE=country
TTITLE0=Flagga Ut
TTITLE1=Rundt Neste Sving
TTITLE2=Meisla I Stein
TTITLE3=Mallorca
TTITLE4=Bra Crazy
TTITLE5=Fulle Seil
TTITLE6=Desperat Behov
TTITLE7=Moder Jord
TTITLE8=Ensomme Damer del 2
TTITLE9=Linda
EXTD=
EXTT0=
EXTT1=
EXTT2=
EXTT3=
EXTT4=
EXTT5=
EXTT6=
EXTT7=
EXTT8=
EXTT9=
PLAYORDER=
